<?xml version="1.0" encoding="utf-8"?>
<!-- Generator: Adobe Illustrator 18.1.1, SVG Export Plug-In . SVG Version: 6.00 Build 0)  -->
<svg version="1.1" id="图层_1" xmlns="http://www.w3.org/2000/svg" xmlns:xlink="http://www.w3.org/1999/xlink" x="0px" y="0px"
	 viewBox="0 0 719 43" enable-background="new 0 0 719 43" xml:space="preserve">
<path fill="#40A629" d="M692,37.8H96c-8.8,0-16-7.2-16-16v0c0-8.8,7.2-16,16-16h596c8.8,0,16,7.2,16,16v0
	C708,30.6,700.8,37.8,692,37.8z"/>
<rect x="107" y="9.8" fill="none" width="584.2" height="42"/>
<text transform="matrix(1 0 0 1 106.9999 27.7955)" fill="#F2F2F2" font-family="'Consolas'" font-size="22">Python | Django | Computer Vision| Internet Worm</text>
<path fill="#666666" d="M75,37.8H24c-8.8,0-16-7.2-16-16v0c0-8.8,7.2-16,16-16h51c8.8,0,16,7.2,16,16v0C91,30.6,83.8,37.8,75,37.8z"
	/>
<rect x="32" y="9.8" fill="none" width="54" height="42"/>
<text transform="matrix(1 0 0 1 31.9999 27.795)" fill="#F2F2F2" font-family="'Consolas'" font-size="22">Key</text>
</svg>
